<svg xmlns="http://www.w3.org/2000/svg" class="canvas" id="preview-undefined" width="800" height="500"><g><path d="M 520,215 L 520,215  L 730,215  L 730,320  Q 520,320  520,320  L 520,320  Z 520,215" stroke="black" fill="rgba(246, 247, 246, 1)"></path></g><g><path d="M 40,80 L 40,80  L 505,80  L 505,185  Q 40,185  40,185  L 40,185  Z 40,80" stroke="black" fill="rgba(246, 247, 246, 1)"></path></g><g><path d="M 55,140 L 55,140  L 55,170  L 85,170  L 85,140  Z 55,140" stroke="black" fill="rgba(102, 242, 171, 1)"></path></g><g><path d="M 100,140 L 100,140  L 100,170  L 130,170  L 130,140  Z 100,140" stroke="black" fill="rgba(242, 144, 151, 1)"></path></g><g><text font-family="-apple-system, BlinkMacSystemFont, 'Segoe UI', Roboto, Oxygen, Ubuntu, Cantarell, 'Open Sans', 'Helvetica Neue', sans-serif" font-size="15" data-is-polygon="true" data-shape-index="4" x="55" y="125">Parallel execution</text><path d="M 55,125 Z 55,125" stroke="black"></path></g><g><path d="M 145,140 L 145,140  L 145,170  L 175,170  L 175,140  Z 145,140" stroke="black" fill="rgba(249, 187, 104, 1)"></path></g><g><path d="M 190,140 L 190,140  L 190,170  L 220,170  L 220,140  Z 190,140" stroke="black" fill="rgba(242, 144, 151, 1)"></path></g><g><path d="M 235,140 L 235,140  L 235,170  L 265,170  L 265,140  Z 235,140" stroke="black" fill="rgba(102, 242, 171, 1)"></path></g><g><path d="M 280,140 L 280,140  L 280,170  L 310,170  L 310,140  Z 280,140" stroke="black" fill="rgba(249, 187, 104, 1)"></path></g><g><path d="M 325,140 L 325,140  L 325,170  L 355,170  L 355,140  Z 325,140" stroke="black" fill="rgba(102, 242, 171, 1)"></path></g><g><path d="M 370,140 L 370,140  L 370,170  L 400,170  L 400,140  Z 370,140" stroke="black" fill="rgba(249, 187, 104, 1)"></path></g><g><path d="M 520,80 L 520,80  L 730,80  L 730,185  Q 520,185  520,185  L 520,185  Z 520,80" stroke="black" fill="rgba(246, 247, 246, 1)"></path></g><g><path d="M 535,275 L 535,275  L 535,305  L 565,305  L 565,275  Z 535,275" stroke="black" fill="rgba(203, 202, 203, 1)"></path></g><g><text font-family="-apple-system, BlinkMacSystemFont, 'Segoe UI', Roboto, Oxygen, Ubuntu, Cantarell, 'Open Sans', 'Helvetica Neue', sans-serif" font-size="15" data-is-polygon="true" data-shape-index="13" x="535" y="260">2 waiting tasks</text><path d="M 535,260 Z 535,260" stroke="black"></path></g><g><path d="M 415,140 L 415,140  L 415,170  L 445,170  L 445,140  Z 415,140" stroke="black" fill="rgba(102, 242, 171, 1)"></path></g><g><path d="M 460,140 L 460,140  L 460,170  L 490,170  L 490,140  Z 460,140" stroke="black" fill="rgba(102, 242, 171, 1)"></path></g><g><path d="M 40,215 L 40,215  L 505,215  L 505,320  Q 40,320  40,320  L 40,320  Z 40,215" stroke="black" fill="rgba(246, 247, 246, 1)"></path></g><g><text font-family="-apple-system, BlinkMacSystemFont, 'Segoe UI', Roboto, Oxygen, Ubuntu, Cantarell, 'Open Sans', 'Helvetica Neue', sans-serif" font-size="15" data-is-polygon="true" data-shape-index="17" x="95" y="480">Task waiting to be executed</text><path d="M 95,480 Z 95,480" stroke="black"></path></g><g><path d="M 55,455 L 55,455  L 55,485  L 85,485  L 85,455  Z 55,455" stroke="black" fill="rgba(203, 202, 203, 1)"></path></g><g><path d="M 100,275 L 100,275  L 100,305  L 130,305  L 130,275  Z 100,275" stroke="black" fill="rgba(102, 242, 171, 1)"></path></g><g><path d="M 235,275 L 235,275  L 235,305  L 265,305  L 265,275  Z 235,275" stroke="black" fill="rgba(102, 242, 171, 1)"></path></g><g><path d="M 145,275 L 145,275  L 145,305  L 175,305  L 175,275  Z 145,275" stroke="black" fill="rgba(102, 242, 171, 1)"></path></g><g><path d="M 190,275 L 190,275  L 190,305  L 220,305  L 220,275  Z 190,275" stroke="black" fill="rgba(242, 144, 151, 1)"></path></g><g><path d="M 460,275 L 460,275  L 460,305  L 490,305  L 490,275  Z 460,275" stroke="black" fill="rgba(203, 202, 203, 1)"></path></g><g><path d="M 235,275 L 235,275  L 235,305  L 265,305  L 265,275  Z 235,275" stroke="black" fill="rgba(102, 242, 171, 1)"></path></g><g><path d="M 280,275 L 280,275  L 280,305  L 310,305  L 310,275  Z 280,275" stroke="black" fill="rgba(102, 242, 171, 1)"></path></g><g><path d="M 325,275 L 325,275  L 325,305  L 355,305  L 355,275  Z 325,275" stroke="black" fill="rgba(102, 242, 171, 1)"></path></g><g><path d="M 370,275 L 370,275  L 370,305  L 400,305  L 400,275  Z 370,275" stroke="black" fill="rgba(249, 187, 104, 1)"></path></g><g><path d="M 415,275 L 415,275  L 415,305  L 445,305  L 445,275  Z 415,275" stroke="black" fill="rgba(203, 202, 203, 1)"></path></g><g><path d="M 535,140 L 535,140  L 535,170  L 565,170  L 565,140  Z 535,140" stroke="black" fill="rgba(102, 242, 171, 1)"></path></g><g><text font-family="-apple-system, BlinkMacSystemFont, 'Segoe UI', Roboto, Oxygen, Ubuntu, Cantarell, 'Open Sans', 'Helvetica Neue', sans-serif" font-size="15" data-is-polygon="true" data-shape-index="30" x="535" y="125">0 waiting tasks</text><path d="M 535,125 Z 535,125" stroke="black"></path></g><g><path d="M 55,275 L 55,275  L 55,305  L 85,305  L 85,275  Z 55,275" stroke="black" fill="rgba(102, 242, 171, 1)"></path></g><g><text font-family="-apple-system, BlinkMacSystemFont, 'Segoe UI', Roboto, Oxygen, Ubuntu, Cantarell, 'Open Sans', 'Helvetica Neue', sans-serif" font-size="15" data-is-polygon="true" data-shape-index="32" x="55" y="260">Synchronous Exection</text><path d="M 55,260 Z 55,260" stroke="black"></path></g><g><path d="M 55,335 L 55,335  L 55,365  L 85,365  L 85,335  Z 55,335" stroke="black" fill="rgba(102, 242, 171, 1)"></path></g><g><text font-family="-apple-system, BlinkMacSystemFont, 'Segoe UI', Roboto, Oxygen, Ubuntu, Cantarell, 'Open Sans', 'Helvetica Neue', sans-serif" font-size="15" data-is-polygon="true" data-shape-index="34" x="95" y="360">Tasks succeded</text><path d="M 95,360 Z 95,360" stroke="black"></path></g><g><text font-family="-apple-system, BlinkMacSystemFont, 'Segoe UI', Roboto, Oxygen, Ubuntu, Cantarell, 'Open Sans', 'Helvetica Neue', sans-serif" font-size="15" data-is-polygon="true" data-shape-index="35" x="95" y="400">Tasks failed</text><path d="M 95,400 Z 95,400" stroke="black"></path></g><g><path d="M 55,375 L 55,375  L 55,405  L 85,405  L 85,375  Z 55,375" stroke="black" fill="rgba(242, 144, 151, 1)"></path></g><g><path d="M 55,415 L 55,415  L 55,445  L 85,445  L 85,415  Z 55,415" stroke="black" fill="rgba(249, 187, 104, 1)"></path></g><g><text font-family="-apple-system, BlinkMacSystemFont, 'Segoe UI', Roboto, Oxygen, Ubuntu, Cantarell, 'Open Sans', 'Helvetica Neue', sans-serif" font-size="15" data-is-polygon="true" data-shape-index="38" x="95" y="440">Task running at that moment</text><path d="M 95,440 Z 95,440" stroke="black"></path></g><g><path d="M 40,60 L 40,60  L 115,60  L 115,55  L 120,60  L 115,65  L 115,60  Z 40,60" stroke="black" fill="rgba(192, 192, 192, 1)"></path></g><g><text font-family="-apple-system, BlinkMacSystemFont, 'Segoe UI', Roboto, Oxygen, Ubuntu, Cantarell, 'Open Sans', 'Helvetica Neue', sans-serif" font-size="15" data-is-polygon="true" data-shape-index="40" x="130" y="65">Time</text><path d="M 130,65 Z 130,65" stroke="black"></path></g></svg>