<svg xmlns="http://www.w3.org/2000/svg" class="canvas" id="preview-undefined" width="800" height="500">
  <g>
    <path d="m 530,310 l 530,310  l 765,310  l 765,375  q 530,375  530,375  l 530,375  l 530,310  z 530,310" stroke="black" fill="rgba(255, 255, 255, 1)"></path>
  </g>
  <g>
    <path d="m 35,95 l 35,95  l 35,175  l 390,175  l 390,95  l 35,95  z 35,95" stroke="black" fill="rgba(37, 38, 40, 1)"></path>
  </g>
  <g>
    <text font-family="-apple-system, blinkmacsystemfont, 'segoe ui', roboto, oxygen, ubuntu, cantarell, 'open sans', 'helvetica neue', sans-serif" font-size="15" data-is-polygon="true" data-shape-index="2" x="50" y="160" fill="rgba(246, 246, 246, 1)">server running on 127.0.0.1</text>
    <path d="m 50,160 l 50,160  z 50,160" stroke="black" fill="rgba(246, 246, 246, 1)"></path>
  </g>
  <g>
    <text font-family="-apple-system, blinkmacsystemfont, 'segoe ui', roboto, oxygen, ubuntu, cantarell, 'open sans', 'helvetica neue', sans-serif" font-size="15" data-is-polygon="true" data-shape-index="7" x="545" y="340">hey, i am a user</text>
    <path d="m 545,340 l 545,340  z 545,340" stroke="black"></path>
  </g>
  <g>
    <text font-family="-apple-system, blinkmacsystemfont, 'segoe ui', roboto, oxygen, ubuntu, cantarell, 'open sans', 'helvetica neue', sans-serif" font-size="15" data-is-polygon="true" data-shape-index="8" x="545" y="360">get /index.html</text>
    <path d="m 545,360 l 545,360  z 545,360" stroke="black"></path>
  </g>
  <g>
    <path d="m 455,425 l 455,425  l 590,425  l 590,395  l 585,395  l 590,390  l 595,395  l 590,395  l 590,425  l 455,425  z 455,425" stroke="black" fill="[object object]"></path>
  </g>
  <g>
    <path d="m 585,285 l 585,285  q 585,150  585,150  l 585,150  l 420,150  l 420,145  l 415,150  l 420,155  l 420,150  l 585,150  l 585,285  z 585,285" stroke="black" fill="[object object]"></path>
  </g>
  <g>
    <text font-family="-apple-system, blinkmacsystemfont, 'segoe ui', roboto, oxygen, ubuntu, cantarell, 'open sans', 'helvetica neue', sans-serif" font-size="15" data-is-polygon="true" data-shape-index="11" x="50" y="120" fill="rgba(246, 246, 246, 1)">read 30 bytes of incoming message</text>
    <path d="m 50,120 l 50,120  z 50,120" stroke="black" fill="rgba(246, 246, 246, 1)"></path>
  </g>
  <g>
    <text font-family="-apple-system, blinkmacsystemfont, 'segoe ui', roboto, oxygen, ubuntu, cantarell, 'open sans', 'helvetica neue', sans-serif" font-size="15" data-is-polygon="true" data-shape-index="12" x="50" y="140" fill="rgba(246, 246, 246, 1)">do with that 30 bytes and prepare a response</text>
    <path d="m 50,140 l 50,140  z 50,140" stroke="black" fill="rgba(246, 246, 246, 1)"></path>
  </g>
  <g>
    <text font-family="-apple-system, blinkmacsystemfont, 'segoe ui', roboto, oxygen, ubuntu, cantarell, 'open sans', 'helvetica neue', sans-serif" font-size="15" data-is-polygon="true" data-shape-index="13" x="65" y="325">response prepared</text>
    <path d="m 65,325 l 65,325  z 65,325" stroke="black"></path>
  </g>
  <g>
    <text font-family="-apple-system, blinkmacsystemfont, 'segoe ui', roboto, oxygen, ubuntu, cantarell, 'open sans', 'helvetica neue', sans-serif" font-size="15" data-is-polygon="true" data-shape-index="14" x="65" y="340">here is your html</text>
    <path d="m 65,340 l 65,340  z 65,340" stroke="black"></path>
  </g>
  <g>
    <path d="m 50,390 l 50,390  l 255,390  l 255,455  q 50,455  50,455  l 50,455  l 50,390  z 50,390" stroke="black" fill="rgba(255, 255, 255, 1)"></path>
  </g>
  <g>
    <text font-family="-apple-system, blinkmacsystemfont, 'segoe ui', roboto, oxygen, ubuntu, cantarell, 'open sans', 'helvetica neue', sans-serif" font-size="15" data-is-polygon="true" data-shape-index="16" x="65" y="425">http 200</text>
    <path d="m 65,425 l 65,425  z 65,425" stroke="black"></path>
  </g>
  <g>
    <text font-family="-apple-system, blinkmacsystemfont, 'segoe ui', roboto, oxygen, ubuntu, cantarell, 'open sans', 'helvetica neue', sans-serif" font-size="15" data-is-polygon="true" data-shape-index="17" x="60" y="440">&lt;html something like that&gt;</text>
    <path d="m 60,440 l 60,440  z 60,440" stroke="black"></path>
  </g>
  <g>
    <text font-family="-apple-system, blinkmacsystemfont, 'segoe ui', roboto, oxygen, ubuntu, cantarell, 'open sans', 'helvetica neue', sans-serif" font-size="15" data-is-polygon="true" data-shape-index="18" x="300" y="430">Hello</text>
    <path d="m 300,430 l 300,430  z 300,430" stroke="black"></path>
  </g>
  <g>
    <path d="m 130,185 l 130,185  l 130,295  l 125,295  l 130,300  l 135,295  q 130,295  130,295  l 130,295  l 130,185  z 130,185" stroke="black" fill="[object object]"></path>
  </g>
  <g>
    <path d="m 130,350 l 130,350  l 130,375  l 125,375  l 130,380  l 135,375  q 130,375  130,375  l 130,375  l 130,350  z 130,350" stroke="black" fill="[object object]"></path>
  </g>
  <g>
    <path d="m 260,425 l 260,425  l 260,425  l 290,425  l 285,420  l 285,425  l 290,425  l 285,430  l 285,425  l 260,425  q 260,425  260,425  z 260,425" stroke="black" fill="[object object]"></path>
  </g>
  <g>
    <path d="m 260,425 l 260,425  q 260,425  260,425  z 260,425" stroke="black"></path>
  </g>
</svg>