<svg xmlns="http://www.w3.org/2000/svg" class="canvas" id="preview-undefined" width="800" height="500"><g><path d="M 530,310 L 530,310  L 765,310  L 765,375  Q 530,375  530,375  L 530,375  L 530,310  Z 530,310" stroke="black" fill="rgba(255, 255, 255, 1)"></path></g><g><path d="M 35,95 L 35,95  L 35,175  L 390,175  L 390,95  L 35,95  Z 35,95" stroke="black" fill="rgba(37, 38, 40, 1)"></path></g><g><text font-family="-apple-system, BlinkMacSystemFont, 'Segoe UI', Roboto, Oxygen, Ubuntu, Cantarell, 'Open Sans', 'Helvetica Neue', sans-serif" font-size="15" data-is-polygon="true" data-shape-index="2" x="50" y="160" fill="rgba(246, 246, 246, 1)">Server running on 127.0.0.1</text><path d="M 50,160 L 50,160  Z 50,160" stroke="black" fill="rgba(246, 246, 246, 1)"></path></g><g><path d="M 420,390 L 420,390  Q 440,390  440,370  L 440,370  Q 440,350  420,350  L 420,350  Q 400,350  400,370  L 400,370  Q 400,390  420,390  Z 420,390" stroke="black" fill="rgba(234, 234, 234, 1)"></path></g><g><path d="M 410,370 L 410,370  Q 410,375  415,375  L 415,375  Q 420,375  420,370  L 420,370  Q 420,365  415,365  L 415,365  Q 410,365  410,370  Z 410,370" stroke="rgba(8, 8, 8, 1)" fill="rgba(237, 237, 241, 1)"></path></g><g><path d="M 425,370 L 425,370  Q 425,375  430,375  L 430,375  Q 435,375  435,370  L 435,370  Q 435,365  430,365  L 430,365  Q 425,365  425,370  Z 425,370" stroke="black" fill="rgba(237, 237, 241, 1)"></path></g><g><path d="M 420,395 L 420,395  L 420,455  L 420,395  Z 420,395" stroke="black" fill="[object Object]"></path></g><g><text font-family="-apple-system, BlinkMacSystemFont, 'Segoe UI', Roboto, Oxygen, Ubuntu, Cantarell, 'Open Sans', 'Helvetica Neue', sans-serif" font-size="15" data-is-polygon="true" data-shape-index="7" x="545" y="340">Hey, I am a user</text><path d="M 545,340 L 545,340  Z 545,340" stroke="black"></path></g><g><text font-family="-apple-system, BlinkMacSystemFont, 'Segoe UI', Roboto, Oxygen, Ubuntu, Cantarell, 'Open Sans', 'Helvetica Neue', sans-serif" font-size="15" data-is-polygon="true" data-shape-index="8" x="545" y="360">GET /index.html</text><path d="M 545,360 L 545,360  Z 545,360" stroke="black"></path></g><g><path d="M 455,425 L 455,425  L 590,425  L 590,395  L 585,395  L 590,390  L 595,395  L 590,395  L 590,425  L 455,425  Z 455,425" stroke="black" fill="[object Object]"></path></g><g><path d="M 585,285 L 585,285  Q 585,150  585,150  L 585,150  L 420,150  L 420,145  L 415,150  L 420,155  L 420,150  L 585,150  L 585,285  Z 585,285" stroke="black" fill="[object Object]"></path></g><g><text font-family="-apple-system, BlinkMacSystemFont, 'Segoe UI', Roboto, Oxygen, Ubuntu, Cantarell, 'Open Sans', 'Helvetica Neue', sans-serif" font-size="15" data-is-polygon="true" data-shape-index="11" x="50" y="120" fill="rgba(246, 246, 246, 1)">Read 30 bytes of incoming message</text><path d="M 50,120 L 50,120  Z 50,120" stroke="black" fill="rgba(246, 246, 246, 1)"></path></g><g><text font-family="-apple-system, BlinkMacSystemFont, 'Segoe UI', Roboto, Oxygen, Ubuntu, Cantarell, 'Open Sans', 'Helvetica Neue', sans-serif" font-size="15" data-is-polygon="true" data-shape-index="12" x="50" y="140" fill="rgba(246, 246, 246, 1)">Do with that 30 bytes and prepare a response</text><path d="M 50,140 L 50,140  Z 50,140" stroke="black" fill="rgba(246, 246, 246, 1)"></path></g><g><text font-family="-apple-system, BlinkMacSystemFont, 'Segoe UI', Roboto, Oxygen, Ubuntu, Cantarell, 'Open Sans', 'Helvetica Neue', sans-serif" font-size="15" data-is-polygon="true" data-shape-index="13" x="65" y="325">Response prepared</text><path d="M 65,325 L 65,325  Z 65,325" stroke="black"></path></g><g><text font-family="-apple-system, BlinkMacSystemFont, 'Segoe UI', Roboto, Oxygen, Ubuntu, Cantarell, 'Open Sans', 'Helvetica Neue', sans-serif" font-size="15" data-is-polygon="true" data-shape-index="14" x="65" y="340">Here is your HTML</text><path d="M 65,340 L 65,340  Z 65,340" stroke="black"></path></g><g><path d="M 50,390 L 50,390  L 255,390  L 255,455  Q 50,455  50,455  L 50,455  L 50,390  Z 50,390" stroke="black" fill="rgba(255, 255, 255, 1)"></path></g><g><text font-family="-apple-system, BlinkMacSystemFont, 'Segoe UI', Roboto, Oxygen, Ubuntu, Cantarell, 'Open Sans', 'Helvetica Neue', sans-serif" font-size="15" data-is-polygon="true" data-shape-index="16" x="65" y="425">HTTP 200</text><path d="M 65,425 L 65,425  Z 65,425" stroke="black"></path></g><g><text font-family="-apple-system, BlinkMacSystemFont, 'Segoe UI', Roboto, Oxygen, Ubuntu, Cantarell, 'Open Sans', 'Helvetica Neue', sans-serif" font-size="15" data-is-polygon="true" data-shape-index="17" x="60" y="440">&lt;html something like that&gt;</text><path d="M 60,440 L 60,440  Z 60,440" stroke="black"></path></g><g><text font-family="-apple-system, BlinkMacSystemFont, 'Segoe UI', Roboto, Oxygen, Ubuntu, Cantarell, 'Open Sans', 'Helvetica Neue', sans-serif" font-size="15" data-is-polygon="true" data-shape-index="18" x="300" y="430">hey I'm here</text><path d="M 300,430 L 300,430  Z 300,430" stroke="black"></path></g><g><path d="M 130,185 L 130,185  L 130,295  L 125,295  L 130,300  L 135,295  Q 130,295  130,295  L 130,295  L 130,185  Z 130,185" stroke="black" fill="[object Object]"></path></g><g><path d="M 130,350 L 130,350  L 130,375  L 125,375  L 130,380  L 135,375  Q 130,375  130,375  L 130,375  L 130,350  Z 130,350" stroke="black" fill="[object Object]"></path></g><g><path d="M 260,425 L 260,425  L 260,425  L 290,425  L 285,420  L 285,425  L 290,425  L 285,430  L 285,425  L 260,425  Q 260,425  260,425  Z 260,425" stroke="black" fill="[object Object]"></path></g><g><path d="M 260,425 L 260,425  Q 260,425  260,425  Z 260,425" stroke="black"></path></g></svg>